<svg width="30" height="30" viewBox="0 0 30 30" fill="none" xmlns="http://www.w3.org/2000/svg">
<g id="dc_mark_white" clip-path="url(#clip0_239_134)">
<path id="dc heart" fill-rule="evenodd" clip-rule="evenodd" d="M12.585 3.65692C9.96504 2.32619 7.51809 2.22476 5.69844 3.2732C3.87944 4.32126 2.745 6.48498 2.59007 9.4129C2.43585 12.3272 3.27779 15.8314 5.22186 19.192C6.92785 22.1411 9.15466 24.4122 11.4364 25.8191C11.0592 24.8752 10.8497 23.8327 10.7928 22.7569C10.6521 20.0986 11.4166 17.0645 13.0499 14.2412C14.448 11.8247 16.2984 9.88161 18.2926 8.61503C16.5895 6.3661 14.5834 4.67198 12.585 3.65692ZM19.6761 10.6843C18.0431 11.709 16.4402 13.3508 15.2045 15.4868C13.7767 17.9547 13.1666 20.5153 13.2783 22.6254C13.3906 24.7493 14.2082 26.2483 15.4459 26.9614C15.8971 27.2214 16.411 27.3809 16.974 27.4321C17.8157 27.3684 18.5924 27.1364 19.2796 26.7404C20.7291 25.9053 21.7439 24.3615 22.1748 22.2871C22.2847 21.7584 22.3565 21.1952 22.388 20.6004C22.5422 17.6861 21.7003 14.1819 19.7562 10.8216C19.7297 10.7757 19.7029 10.7299 19.6761 10.6843ZM16.9607 29.9275C15.0834 30.0231 13.1201 29.5168 11.2659 28.5751C8.17046 27.0028 5.21691 24.1536 3.06724 20.4375C0.917642 16.7216 -0.0786092 12.7439 0.10461 9.28147C0.287107 5.83273 1.66573 2.72506 4.45553 1.11764C7.24469 -0.4894 10.6295 -0.127041 13.7124 1.43884C14.9704 2.07779 16.2049 2.92761 17.3715 3.96077C17.3771 3.96557 17.3827 3.97043 17.3882 3.97535C18.5217 4.98156 19.5932 6.16234 20.5602 7.49442C22.5783 6.77534 24.7056 6.74962 26.5308 7.80151M24.595 22.8641C24.7427 22.176 24.8349 21.4615 24.8735 20.7318C25.0554 17.2956 24.0758 13.3519 21.9602 9.66051C23.246 9.32027 24.3911 9.44021 25.2878 9.95702L25.288 9.95715C26.526 10.6703 27.3437 12.1694 27.4561 14.2931C27.5678 16.4033 26.9577 18.9639 25.5299 21.4317C25.2374 21.9375 24.9242 22.4155 24.595 22.8641ZM16.9607 29.9275C18.4452 30.0128 19.9873 29.6144 21.424 28.8847C23.8004 27.6777 26.0511 25.5006 27.6845 22.6773C29.3179 19.8541 30.0823 16.8199 29.9415 14.1616C29.8015 11.5171 28.7397 9.07416 26.531 7.80163" fill="#31728D"/>
</g>
<defs>
<clipPath id="clip0_239_134">
<rect width="30" height="30" fill="white"/>
</clipPath>
</defs>
</svg>
