<svg width="273" height="168" viewBox="0 0 273 168" fill="none" xmlns="http://www.w3.org/2000/svg">
<path d="M4.564 17.072C4.444 17.072 4.352 17.04 4.288 16.976C4.224 16.904 4.192 16.808 4.192 16.688V9.2H1.324C1.212 9.2 1.124 9.168 1.06 9.104C0.996 9.04 0.964 8.96 0.964 8.864C0.964 8.76 0.996 8.68 1.06 8.624C1.124 8.568 1.212 8.54 1.324 8.54H7.816C7.928 8.54 8.012 8.568 8.068 8.624C8.132 8.68 8.164 8.76 8.164 8.864C8.164 8.968 8.132 9.052 8.068 9.116C8.012 9.172 7.928 9.2 7.816 9.2H4.936V16.688C4.936 16.808 4.904 16.904 4.84 16.976C4.784 17.04 4.692 17.072 4.564 17.072ZM9.97094 17.096C9.57894 17.096 9.22694 17.02 8.91494 16.868C8.61094 16.716 8.36694 16.508 8.18294 16.244C8.00694 15.98 7.91894 15.684 7.91894 15.356C7.91894 14.924 8.02694 14.584 8.24294 14.336C8.45894 14.088 8.82294 13.916 9.33494 13.82C9.84694 13.716 10.5509 13.664 11.4469 13.664H11.9629V14.204H11.4589C10.7389 14.204 10.1749 14.236 9.76694 14.3C9.36694 14.356 9.08694 14.464 8.92694 14.624C8.76694 14.784 8.68694 15.008 8.68694 15.296C8.68694 15.656 8.81094 15.948 9.05894 16.172C9.30694 16.396 9.64294 16.508 10.0669 16.508C10.4109 16.508 10.7109 16.428 10.9669 16.268C11.2309 16.1 11.4389 15.872 11.5909 15.584C11.7429 15.296 11.8189 14.968 11.8189 14.6V13.232C11.8189 12.696 11.7109 12.308 11.4949 12.068C11.2789 11.82 10.9349 11.696 10.4629 11.696C10.1589 11.696 9.86294 11.736 9.57494 11.816C9.29494 11.896 8.99494 12.024 8.67494 12.2C8.58694 12.248 8.50694 12.264 8.43494 12.248C8.37094 12.232 8.31894 12.2 8.27894 12.152C8.24694 12.104 8.22294 12.048 8.20694 11.984C8.19894 11.912 8.21094 11.844 8.24294 11.78C8.27494 11.716 8.33094 11.664 8.41094 11.624C8.74694 11.44 9.08694 11.304 9.43094 11.216C9.78294 11.12 10.1229 11.072 10.4509 11.072C10.9229 11.072 11.3109 11.152 11.6149 11.312C11.9269 11.472 12.1549 11.712 12.2989 12.032C12.4509 12.352 12.5269 12.764 12.5269 13.268V16.7C12.5269 16.82 12.4989 16.912 12.4429 16.976C12.3869 17.04 12.3029 17.072 12.1909 17.072C12.0789 17.072 11.9909 17.04 11.9269 16.976C11.8629 16.912 11.8309 16.82 11.8309 16.7V15.596H11.9509C11.8789 15.908 11.7509 16.176 11.5669 16.4C11.3829 16.624 11.1549 16.796 10.8829 16.916C10.6109 17.036 10.3069 17.096 9.97094 17.096ZM14.8125 17.072C14.6925 17.072 14.6005 17.04 14.5365 16.976C14.4725 16.912 14.4405 16.82 14.4405 16.7V8.84C14.4405 8.712 14.4725 8.62 14.5365 8.564C14.6005 8.5 14.6925 8.468 14.8125 8.468C14.9245 8.468 15.0125 8.5 15.0765 8.564C15.1405 8.62 15.1725 8.712 15.1725 8.84V13.82H15.1965L17.8845 11.36C17.9725 11.28 18.0485 11.216 18.1125 11.168C18.1845 11.12 18.2765 11.096 18.3885 11.096C18.4845 11.096 18.5605 11.124 18.6165 11.18C18.6725 11.236 18.6965 11.304 18.6885 11.384C18.6885 11.456 18.6485 11.536 18.5685 11.624L15.7125 14.228V13.76L18.8205 16.52C18.9165 16.608 18.9645 16.696 18.9645 16.784C18.9725 16.864 18.9485 16.932 18.8925 16.988C18.8365 17.044 18.7605 17.072 18.6645 17.072C18.5605 17.072 18.4725 17.048 18.4005 17C18.3285 16.96 18.2405 16.892 18.1365 16.796L15.1965 14.204H15.1725V16.7C15.1725 16.948 15.0525 17.072 14.8125 17.072ZM22.6209 17.096C22.0209 17.096 21.5049 16.976 21.0729 16.736C20.6409 16.496 20.3089 16.152 20.0769 15.704C19.8449 15.256 19.7289 14.724 19.7289 14.108C19.7289 13.5 19.8449 12.972 20.0769 12.524C20.3089 12.068 20.6289 11.712 21.0369 11.456C21.4529 11.2 21.9289 11.072 22.4649 11.072C22.8569 11.072 23.2009 11.14 23.4969 11.276C23.8009 11.404 24.0569 11.592 24.2649 11.84C24.4809 12.08 24.6449 12.376 24.7569 12.728C24.8689 13.072 24.9249 13.464 24.9249 13.904C24.9249 14.016 24.8929 14.1 24.8289 14.156C24.7729 14.212 24.6929 14.24 24.5889 14.24H20.2569V13.7H24.4689L24.2769 13.856C24.2769 13.392 24.2089 13 24.0729 12.68C23.9369 12.352 23.7329 12.1 23.4609 11.924C23.1969 11.748 22.8689 11.66 22.4769 11.66C22.0369 11.66 21.6649 11.764 21.3609 11.972C21.0569 12.172 20.8289 12.452 20.6769 12.812C20.5249 13.164 20.4489 13.572 20.4489 14.036V14.096C20.4489 14.864 20.6369 15.456 21.0129 15.872C21.3889 16.28 21.9169 16.484 22.5969 16.484C22.8929 16.484 23.1769 16.444 23.4489 16.364C23.7289 16.284 24.0009 16.148 24.2649 15.956C24.3449 15.9 24.4209 15.872 24.4929 15.872C24.5729 15.872 24.6369 15.892 24.6849 15.932C24.7409 15.972 24.7769 16.024 24.7929 16.088C24.8169 16.144 24.8129 16.208 24.7809 16.28C24.7569 16.344 24.7049 16.404 24.6249 16.46C24.3689 16.668 24.0609 16.828 23.7009 16.94C23.3409 17.044 22.9809 17.096 22.6209 17.096ZM31.2405 17.096C30.8485 17.096 30.4965 17.02 30.1845 16.868C29.8805 16.716 29.6365 16.508 29.4525 16.244C29.2765 15.98 29.1885 15.684 29.1885 15.356C29.1885 14.924 29.2965 14.584 29.5125 14.336C29.7285 14.088 30.0925 13.916 30.6045 13.82C31.1165 13.716 31.8205 13.664 32.7165 13.664H33.2325V14.204H32.7285C32.0085 14.204 31.4445 14.236 31.0365 14.3C30.6365 14.356 30.3565 14.464 30.1965 14.624C30.0365 14.784 29.9565 15.008 29.9565 15.296C29.9565 15.656 30.0805 15.948 30.3285 16.172C30.5765 16.396 30.9125 16.508 31.3365 16.508C31.6805 16.508 31.9805 16.428 32.2365 16.268C32.5005 16.1 32.7085 15.872 32.8605 15.584C33.0125 15.296 33.0885 14.968 33.0885 14.6V13.232C33.0885 12.696 32.9805 12.308 32.7645 12.068C32.5485 11.82 32.2045 11.696 31.7325 11.696C31.4285 11.696 31.1325 11.736 30.8445 11.816C30.5645 11.896 30.2645 12.024 29.9445 12.2C29.8565 12.248 29.7765 12.264 29.7045 12.248C29.6405 12.232 29.5885 12.2 29.5485 12.152C29.5165 12.104 29.4925 12.048 29.4765 11.984C29.4685 11.912 29.4805 11.844 29.5125 11.78C29.5445 11.716 29.6005 11.664 29.6805 11.624C30.0165 11.44 30.3565 11.304 30.7005 11.216C31.0525 11.12 31.3925 11.072 31.7205 11.072C32.1925 11.072 32.5805 11.152 32.8845 11.312C33.1965 11.472 33.4245 11.712 33.5685 12.032C33.7205 12.352 33.7965 12.764 33.7965 13.268V16.7C33.7965 16.82 33.7685 16.912 33.7125 16.976C33.6565 17.04 33.5725 17.072 33.4605 17.072C33.3485 17.072 33.2605 17.04 33.1965 16.976C33.1325 16.912 33.1005 16.82 33.1005 16.7V15.596H33.2205C33.1485 15.908 33.0205 16.176 32.8365 16.4C32.6525 16.624 32.4245 16.796 32.1525 16.916C31.8805 17.036 31.5765 17.096 31.2405 17.096ZM43.3414 19.232C43.2294 19.232 43.1414 19.2 43.0774 19.136C43.0134 19.072 42.9814 18.98 42.9814 18.86V15.56H43.1134C42.9854 16.024 42.7294 16.396 42.3454 16.676C41.9614 16.956 41.4974 17.096 40.9534 17.096C40.4254 17.096 39.9654 16.976 39.5734 16.736C39.1894 16.488 38.8934 16.14 38.6854 15.692C38.4774 15.236 38.3734 14.7 38.3734 14.084C38.3734 13.468 38.4774 12.936 38.6854 12.488C38.9014 12.04 39.2014 11.692 39.5854 11.444C39.9774 11.196 40.4334 11.072 40.9534 11.072C41.4974 11.072 41.9614 11.212 42.3454 11.492C42.7294 11.772 42.9854 12.152 43.1134 12.632L42.9814 12.704V11.48C42.9814 11.352 43.0134 11.256 43.0774 11.192C43.1414 11.128 43.2334 11.096 43.3534 11.096C43.4654 11.096 43.5534 11.128 43.6174 11.192C43.6814 11.256 43.7134 11.352 43.7134 11.48V18.86C43.7134 18.98 43.6814 19.072 43.6174 19.136C43.5534 19.2 43.4614 19.232 43.3414 19.232ZM41.0494 16.484C41.4494 16.484 41.7934 16.392 42.0814 16.208C42.3774 16.016 42.6014 15.74 42.7534 15.38C42.9134 15.02 42.9934 14.588 42.9934 14.084C42.9934 13.324 42.8174 12.736 42.4654 12.32C42.1214 11.904 41.6494 11.696 41.0494 11.696C40.6574 11.696 40.3134 11.792 40.0174 11.984C39.7294 12.168 39.5054 12.44 39.3454 12.8C39.1934 13.152 39.1174 13.58 39.1174 14.084C39.1174 14.852 39.2934 15.444 39.6454 15.86C39.9974 16.276 40.4654 16.484 41.0494 16.484ZM47.6878 17.096C47.2238 17.096 46.8358 17.012 46.5238 16.844C46.2198 16.676 45.9918 16.424 45.8398 16.088C45.6878 15.752 45.6118 15.336 45.6118 14.84V11.48C45.6118 11.352 45.6438 11.256 45.7078 11.192C45.7718 11.128 45.8638 11.096 45.9838 11.096C46.0958 11.096 46.1838 11.128 46.2478 11.192C46.3118 11.256 46.3438 11.352 46.3438 11.48V14.804C46.3438 15.364 46.4598 15.784 46.6918 16.064C46.9238 16.336 47.2878 16.472 47.7838 16.472C48.3278 16.472 48.7678 16.292 49.1038 15.932C49.4398 15.564 49.6078 15.084 49.6078 14.492V11.48C49.6078 11.352 49.6398 11.256 49.7038 11.192C49.7678 11.128 49.8598 11.096 49.9798 11.096C50.0918 11.096 50.1798 11.128 50.2438 11.192C50.3078 11.256 50.3398 11.352 50.3398 11.48V16.7C50.3398 16.948 50.2238 17.072 49.9918 17.072C49.8798 17.072 49.7918 17.04 49.7278 16.976C49.6638 16.912 49.6318 16.82 49.6318 16.7V15.512L49.7758 15.596C49.6238 16.084 49.3598 16.456 48.9838 16.712C48.6078 16.968 48.1758 17.096 47.6878 17.096ZM52.6406 17.048C52.5206 17.048 52.4286 17.012 52.3646 16.94C52.3006 16.868 52.2686 16.772 52.2686 16.652V11.516C52.2686 11.388 52.3006 11.292 52.3646 11.228C52.4286 11.164 52.5206 11.132 52.6406 11.132C52.7526 11.132 52.8406 11.164 52.9046 11.228C52.9686 11.292 53.0006 11.388 53.0006 11.516V16.652C53.0006 16.772 52.9686 16.868 52.9046 16.94C52.8486 17.012 52.7606 17.048 52.6406 17.048ZM52.6406 9.68C52.4726 9.68 52.3406 9.636 52.2446 9.548C52.1566 9.46 52.1126 9.336 52.1126 9.176C52.1126 9.016 52.1566 8.896 52.2446 8.816C52.3406 8.728 52.4726 8.684 52.6406 8.684C52.8086 8.684 52.9366 8.728 53.0246 8.816C53.1206 8.896 53.1686 9.016 53.1686 9.176C53.1686 9.336 53.1206 9.46 53.0246 9.548C52.9366 9.636 52.8086 9.68 52.6406 9.68ZM54.9408 17C54.8608 17 54.7928 16.984 54.7368 16.952C54.6888 16.912 54.6528 16.864 54.6288 16.808C54.6128 16.744 54.6128 16.676 54.6288 16.604C54.6528 16.524 54.6968 16.448 54.7607 16.376L58.2768 11.564V11.768H54.8928C54.7888 11.768 54.7088 11.744 54.6528 11.696C54.6048 11.64 54.5808 11.564 54.5808 11.468C54.5808 11.38 54.6048 11.312 54.6528 11.264C54.7088 11.208 54.7888 11.18 54.8928 11.18H58.6368C58.7328 11.18 58.8088 11.2 58.8648 11.24C58.9288 11.272 58.9688 11.316 58.9848 11.372C59.0088 11.428 59.0128 11.492 58.9968 11.564C58.9808 11.636 58.9448 11.708 58.8888 11.78L55.3248 16.628V16.412H58.8648C59.0728 16.412 59.1768 16.508 59.1768 16.7C59.1768 16.796 59.1488 16.872 59.0928 16.928C59.0368 16.976 58.9608 17 58.8648 17H54.9408ZM65.656 17.096C65.224 17.096 64.864 17.016 64.576 16.856C64.288 16.696 64.072 16.468 63.928 16.172C63.784 15.868 63.712 15.496 63.712 15.056V11.768H62.824C62.72 11.768 62.636 11.744 62.572 11.696C62.508 11.64 62.476 11.564 62.476 11.468C62.476 11.38 62.508 11.312 62.572 11.264C62.636 11.208 62.72 11.18 62.824 11.18H63.712V9.68C63.712 9.552 63.744 9.46 63.808 9.404C63.872 9.34 63.964 9.308 64.084 9.308C64.196 9.308 64.284 9.34 64.348 9.404C64.412 9.46 64.444 9.552 64.444 9.68V11.18H66.064C66.176 11.18 66.26 11.208 66.316 11.264C66.372 11.312 66.4 11.38 66.4 11.468C66.4 11.564 66.372 11.64 66.316 11.696C66.26 11.744 66.176 11.768 66.064 11.768H64.444V14.96C64.444 15.448 64.544 15.82 64.744 16.076C64.944 16.332 65.276 16.46 65.74 16.46C65.9 16.46 66.032 16.444 66.136 16.412C66.248 16.372 66.34 16.352 66.412 16.352C66.468 16.352 66.516 16.376 66.556 16.424C66.604 16.472 66.628 16.548 66.628 16.652C66.628 16.716 66.612 16.78 66.58 16.844C66.556 16.908 66.508 16.948 66.436 16.964C66.348 16.996 66.228 17.024 66.076 17.048C65.924 17.08 65.784 17.096 65.656 17.096ZM69.7369 17.096C69.1929 17.096 68.7209 16.972 68.3209 16.724C67.9209 16.476 67.6089 16.128 67.3849 15.68C67.1689 15.232 67.0609 14.7 67.0609 14.084C67.0609 13.628 67.1209 13.216 67.2409 12.848C67.3689 12.48 67.5489 12.164 67.7809 11.9C68.0209 11.628 68.3049 11.424 68.6329 11.288C68.9689 11.144 69.3369 11.072 69.7369 11.072C70.2889 11.072 70.7649 11.196 71.1649 11.444C71.5649 11.692 71.8729 12.044 72.0889 12.5C72.3129 12.948 72.4249 13.476 72.4249 14.084C72.4249 14.548 72.3609 14.964 72.2329 15.332C72.1129 15.7 71.9329 16.016 71.6929 16.28C71.4609 16.544 71.1809 16.748 70.8529 16.892C70.5249 17.028 70.1529 17.096 69.7369 17.096ZM69.7369 16.484C70.1369 16.484 70.4809 16.392 70.7689 16.208C71.0649 16.016 71.2889 15.74 71.4409 15.38C71.6009 15.02 71.6809 14.588 71.6809 14.084C71.6809 13.324 71.5049 12.736 71.1529 12.32C70.8089 11.904 70.3369 11.696 69.7369 11.696C69.3449 11.696 69.0009 11.792 68.7049 11.984C68.4169 12.168 68.1929 12.44 68.0329 12.8C67.8809 13.152 67.8049 13.58 67.8049 14.084C67.8049 14.852 67.9809 15.444 68.3329 15.86C68.6849 16.276 69.1529 16.484 69.7369 16.484ZM79.5389 19.256C79.1069 19.256 78.6869 19.2 78.2789 19.088C77.8789 18.984 77.5149 18.812 77.1869 18.572C77.1229 18.532 77.0789 18.48 77.0549 18.416C77.0389 18.352 77.0389 18.288 77.0549 18.224C77.0709 18.168 77.0989 18.116 77.1389 18.068C77.1869 18.02 77.2389 17.992 77.2949 17.984C77.3589 17.976 77.4229 17.988 77.4869 18.02C77.8389 18.252 78.1749 18.412 78.4949 18.5C78.8229 18.596 79.1629 18.644 79.5149 18.644C80.0989 18.644 80.5429 18.48 80.8469 18.152C81.1509 17.832 81.3029 17.372 81.3029 16.772V15.284H81.4229C81.3029 15.78 81.0469 16.168 80.6549 16.448C80.2629 16.728 79.7989 16.868 79.2629 16.868C78.7269 16.868 78.2629 16.748 77.8709 16.508C77.4789 16.26 77.1749 15.92 76.9589 15.488C76.7509 15.048 76.6469 14.54 76.6469 13.964C76.6469 13.532 76.7069 13.14 76.8269 12.788C76.9469 12.436 77.1189 12.132 77.3429 11.876C77.5749 11.62 77.8509 11.424 78.1709 11.288C78.4909 11.144 78.8549 11.072 79.2629 11.072C79.7989 11.072 80.2629 11.216 80.6549 11.504C81.0469 11.784 81.2989 12.164 81.4109 12.644L81.2909 12.716V11.48C81.2909 11.352 81.3229 11.256 81.3869 11.192C81.4509 11.128 81.5389 11.096 81.6509 11.096C81.7709 11.096 81.8589 11.128 81.9149 11.192C81.9789 11.256 82.0109 11.352 82.0109 11.48V16.664C82.0109 17.52 81.8029 18.164 81.3869 18.596C80.9709 19.036 80.3549 19.256 79.5389 19.256ZM79.3469 16.244C79.7469 16.244 80.0909 16.152 80.3789 15.968C80.6749 15.776 80.9029 15.512 81.0629 15.176C81.2229 14.832 81.3029 14.428 81.3029 13.964C81.3029 13.268 81.1269 12.716 80.7749 12.308C80.4229 11.9 79.9469 11.696 79.3469 11.696C78.9469 11.696 78.5989 11.788 78.3029 11.972C78.0069 12.156 77.7789 12.42 77.6189 12.764C77.4669 13.1 77.3909 13.5 77.3909 13.964C77.3909 14.66 77.5669 15.216 77.9189 15.632C78.2709 16.04 78.7469 16.244 79.3469 16.244ZM86.4764 17.096C85.8764 17.096 85.3604 16.976 84.9284 16.736C84.4964 16.496 84.1644 16.152 83.9324 15.704C83.7004 15.256 83.5844 14.724 83.5844 14.108C83.5844 13.5 83.7004 12.972 83.9324 12.524C84.1644 12.068 84.4844 11.712 84.8924 11.456C85.3084 11.2 85.7844 11.072 86.3204 11.072C86.7124 11.072 87.0564 11.14 87.3524 11.276C87.6564 11.404 87.9124 11.592 88.1204 11.84C88.3364 12.08 88.5004 12.376 88.6124 12.728C88.7244 13.072 88.7804 13.464 88.7804 13.904C88.7804 14.016 88.7484 14.1 88.6844 14.156C88.6284 14.212 88.5484 14.24 88.4444 14.24H84.1124V13.7H88.3244L88.1324 13.856C88.1324 13.392 88.0644 13 87.9284 12.68C87.7924 12.352 87.5884 12.1 87.3164 11.924C87.0524 11.748 86.7244 11.66 86.3324 11.66C85.8924 11.66 85.5204 11.764 85.2164 11.972C84.9124 12.172 84.6844 12.452 84.5324 12.812C84.3804 13.164 84.3044 13.572 84.3044 14.036V14.096C84.3044 14.864 84.4924 15.456 84.8684 15.872C85.2444 16.28 85.7724 16.484 86.4524 16.484C86.7484 16.484 87.0324 16.444 87.3044 16.364C87.5844 16.284 87.8564 16.148 88.1204 15.956C88.2004 15.9 88.2764 15.872 88.3484 15.872C88.4284 15.872 88.4924 15.892 88.5404 15.932C88.5964 15.972 88.6324 16.024 88.6484 16.088C88.6724 16.144 88.6684 16.208 88.6364 16.28C88.6124 16.344 88.5604 16.404 88.4804 16.46C88.2244 16.668 87.9164 16.828 87.5564 16.94C87.1964 17.044 86.8364 17.096 86.4764 17.096ZM92.4685 17.096C92.0365 17.096 91.6765 17.016 91.3885 16.856C91.1005 16.696 90.8845 16.468 90.7405 16.172C90.5965 15.868 90.5245 15.496 90.5245 15.056V11.768H89.6365C89.5325 11.768 89.4485 11.744 89.3845 11.696C89.3205 11.64 89.2885 11.564 89.2885 11.468C89.2885 11.38 89.3205 11.312 89.3845 11.264C89.4485 11.208 89.5325 11.18 89.6365 11.18H90.5245V9.68C90.5245 9.552 90.5565 9.46 90.6205 9.404C90.6845 9.34 90.7765 9.308 90.8965 9.308C91.0085 9.308 91.0965 9.34 91.1605 9.404C91.2245 9.46 91.2565 9.552 91.2565 9.68V11.18H92.8765C92.9885 11.18 93.0725 11.208 93.1285 11.264C93.1845 11.312 93.2125 11.38 93.2125 11.468C93.2125 11.564 93.1845 11.64 93.1285 11.696C93.0725 11.744 92.9885 11.768 92.8765 11.768H91.2565V14.96C91.2565 15.448 91.3565 15.82 91.5565 16.076C91.7565 16.332 92.0885 16.46 92.5525 16.46C92.7125 16.46 92.8445 16.444 92.9485 16.412C93.0605 16.372 93.1525 16.352 93.2245 16.352C93.2805 16.352 93.3285 16.376 93.3685 16.424C93.4165 16.472 93.4405 16.548 93.4405 16.652C93.4405 16.716 93.4245 16.78 93.3925 16.844C93.3685 16.908 93.3205 16.948 93.2485 16.964C93.1605 16.996 93.0405 17.024 92.8885 17.048C92.7365 17.08 92.5965 17.096 92.4685 17.096ZM3.76 31.096C3.368 31.096 3.016 31.02 2.704 30.868C2.4 30.716 2.156 30.508 1.972 30.244C1.796 29.98 1.708 29.684 1.708 29.356C1.708 28.924 1.816 28.584 2.032 28.336C2.248 28.088 2.612 27.916 3.124 27.82C3.636 27.716 4.34 27.664 5.236 27.664H5.752V28.204H5.248C4.528 28.204 3.964 28.236 3.556 28.3C3.156 28.356 2.876 28.464 2.716 28.624C2.556 28.784 2.476 29.008 2.476 29.296C2.476 29.656 2.6 29.948 2.848 30.172C3.096 30.396 3.432 30.508 3.856 30.508C4.2 30.508 4.5 30.428 4.756 30.268C5.02 30.1 5.228 29.872 5.38 29.584C5.532 29.296 5.608 28.968 5.608 28.6V27.232C5.608 26.696 5.5 26.308 5.284 26.068C5.068 25.82 4.724 25.696 4.252 25.696C3.948 25.696 3.652 25.736 3.364 25.816C3.084 25.896 2.784 26.024 2.464 26.2C2.376 26.248 2.296 26.264 2.224 26.248C2.16 26.232 2.108 26.2 2.068 26.152C2.036 26.104 2.012 26.048 1.996 25.984C1.988 25.912 2 25.844 2.032 25.78C2.064 25.716 2.12 25.664 2.2 25.624C2.536 25.44 2.876 25.304 3.22 25.216C3.572 25.12 3.912 25.072 4.24 25.072C4.712 25.072 5.1 25.152 5.404 25.312C5.716 25.472 5.944 25.712 6.088 26.032C6.24 26.352 6.316 26.764 6.316 27.268V30.7C6.316 30.82 6.288 30.912 6.232 30.976C6.176 31.04 6.092 31.072 5.98 31.072C5.868 31.072 5.78 31.04 5.716 30.976C5.652 30.912 5.62 30.82 5.62 30.7V29.596H5.74C5.668 29.908 5.54 30.176 5.356 30.4C5.172 30.624 4.944 30.796 4.672 30.916C4.4 31.036 4.096 31.096 3.76 31.096ZM11.625 33.232C11.505 33.232 11.413 33.2 11.349 33.136C11.285 33.072 11.253 32.98 11.253 32.86V25.48C11.253 25.352 11.285 25.256 11.349 25.192C11.413 25.128 11.505 25.096 11.625 25.096C11.737 25.096 11.825 25.128 11.889 25.192C11.953 25.256 11.985 25.352 11.985 25.48V26.704L11.853 26.632C11.989 26.152 12.249 25.772 12.633 25.492C13.017 25.212 13.481 25.072 14.025 25.072C14.545 25.072 14.997 25.196 15.381 25.444C15.773 25.692 16.073 26.04 16.281 26.488C16.497 26.936 16.605 27.468 16.605 28.084C16.605 28.7 16.497 29.236 16.281 29.692C16.073 30.14 15.777 30.488 15.393 30.736C15.009 30.976 14.553 31.096 14.025 31.096C13.481 31.096 13.017 30.956 12.633 30.676C12.249 30.396 11.989 30.024 11.853 29.56H11.985V32.86C11.985 32.98 11.953 33.072 11.889 33.136C11.825 33.2 11.737 33.232 11.625 33.232ZM13.917 30.484C14.309 30.484 14.649 30.392 14.937 30.208C15.233 30.016 15.461 29.74 15.621 29.38C15.781 29.02 15.861 28.588 15.861 28.084C15.861 27.324 15.685 26.736 15.333 26.32C14.981 25.904 14.509 25.696 13.917 25.696C13.525 25.696 13.181 25.792 12.885 25.984C12.597 26.168 12.373 26.44 12.213 26.8C12.053 27.152 11.973 27.58 11.973 28.084C11.973 28.852 12.149 29.444 12.501 29.86C12.853 30.276 13.325 30.484 13.917 30.484ZM20.6873 31.096C20.0873 31.096 19.5713 30.976 19.1393 30.736C18.7073 30.496 18.3753 30.152 18.1433 29.704C17.9113 29.256 17.7953 28.724 17.7953 28.108C17.7953 27.5 17.9113 26.972 18.1433 26.524C18.3753 26.068 18.6953 25.712 19.1033 25.456C19.5193 25.2 19.9953 25.072 20.5313 25.072C20.9233 25.072 21.2673 25.14 21.5633 25.276C21.8673 25.404 22.1233 25.592 22.3313 25.84C22.5473 26.08 22.7113 26.376 22.8233 26.728C22.9353 27.072 22.9913 27.464 22.9913 27.904C22.9913 28.016 22.9593 28.1 22.8953 28.156C22.8393 28.212 22.7593 28.24 22.6553 28.24H18.3233V27.7H22.5353L22.3433 27.856C22.3433 27.392 22.2753 27 22.1393 26.68C22.0033 26.352 21.7993 26.1 21.5273 25.924C21.2633 25.748 20.9353 25.66 20.5433 25.66C20.1033 25.66 19.7313 25.764 19.4273 25.972C19.1233 26.172 18.8953 26.452 18.7433 26.812C18.5913 27.164 18.5153 27.572 18.5153 28.036V28.096C18.5153 28.864 18.7033 29.456 19.0793 29.872C19.4553 30.28 19.9833 30.484 20.6633 30.484C20.9593 30.484 21.2433 30.444 21.5153 30.364C21.7953 30.284 22.0673 30.148 22.3313 29.956C22.4113 29.9 22.4873 29.872 22.5593 29.872C22.6393 29.872 22.7033 29.892 22.7513 29.932C22.8073 29.972 22.8433 30.024 22.8593 30.088C22.8833 30.144 22.8793 30.208 22.8473 30.28C22.8233 30.344 22.7713 30.404 22.6913 30.46C22.4353 30.668 22.1273 30.828 21.7673 30.94C21.4073 31.044 21.0473 31.096 20.6873 31.096ZM24.8554 31.072C24.7354 31.072 24.6434 31.04 24.5794 30.976C24.5154 30.912 24.4834 30.82 24.4834 30.7V25.48C24.4834 25.352 24.5154 25.256 24.5794 25.192C24.6434 25.128 24.7354 25.096 24.8554 25.096C24.9674 25.096 25.0514 25.128 25.1074 25.192C25.1714 25.256 25.2034 25.352 25.2034 25.48V26.548H25.0834C25.2274 26.076 25.4834 25.712 25.8514 25.456C26.2274 25.2 26.6754 25.068 27.1954 25.06C27.2914 25.052 27.3714 25.072 27.4354 25.12C27.4994 25.168 27.5314 25.244 27.5314 25.348C27.5394 25.46 27.5154 25.548 27.4594 25.612C27.4034 25.668 27.3114 25.704 27.1834 25.72L27.0154 25.732C26.4474 25.788 26.0074 25.976 25.6954 26.296C25.3834 26.616 25.2274 27.048 25.2274 27.592V30.7C25.2274 30.82 25.1954 30.912 25.1314 30.976C25.0754 31.04 24.9834 31.072 24.8554 31.072ZM30.4224 31.096C30.0624 31.096 29.7024 31.048 29.3424 30.952C28.9904 30.856 28.6544 30.692 28.3344 30.46C28.2704 30.42 28.2264 30.372 28.2024 30.316C28.1864 30.252 28.1824 30.188 28.1904 30.124C28.2064 30.06 28.2344 30.008 28.2744 29.968C28.3224 29.92 28.3784 29.892 28.4424 29.884C28.5064 29.876 28.5744 29.896 28.6464 29.944C28.9584 30.152 29.2624 30.296 29.5584 30.376C29.8544 30.456 30.1504 30.496 30.4464 30.496C30.9344 30.496 31.3064 30.404 31.5624 30.22C31.8184 30.036 31.9464 29.788 31.9464 29.476C31.9464 29.22 31.8624 29.024 31.6944 28.888C31.5344 28.744 31.2704 28.628 30.9024 28.54L29.8584 28.3C29.3544 28.188 28.9824 28.008 28.7424 27.76C28.5024 27.504 28.3824 27.176 28.3824 26.776C28.3824 26.432 28.4704 26.132 28.6464 25.876C28.8304 25.62 29.0864 25.424 29.4144 25.288C29.7504 25.144 30.1344 25.072 30.5664 25.072C30.9184 25.072 31.2544 25.124 31.5744 25.228C31.8944 25.332 32.1744 25.492 32.4144 25.708C32.4784 25.756 32.5184 25.812 32.5344 25.876C32.5584 25.94 32.5584 26.004 32.5344 26.068C32.5184 26.124 32.4864 26.172 32.4384 26.212C32.3904 26.252 32.3344 26.272 32.2704 26.272C32.2064 26.272 32.1384 26.248 32.0664 26.2C31.8344 26.024 31.5904 25.896 31.3344 25.816C31.0784 25.728 30.8184 25.684 30.5544 25.684C30.0904 25.684 29.7304 25.78 29.4744 25.972C29.2264 26.164 29.1024 26.424 29.1024 26.752C29.1024 27 29.1784 27.2 29.3304 27.352C29.4904 27.504 29.7384 27.62 30.0744 27.7L31.1184 27.94C31.6384 28.06 32.0264 28.24 32.2824 28.48C32.5384 28.712 32.6664 29.028 32.6664 29.428C32.6664 29.94 32.4624 30.348 32.0544 30.652C31.6544 30.948 31.1104 31.096 30.4224 31.096ZM36.5729 31.096C36.0289 31.096 35.5569 30.972 35.1569 30.724C34.7569 30.476 34.4449 30.128 34.2209 29.68C34.0049 29.232 33.8969 28.7 33.8969 28.084C33.8969 27.628 33.9569 27.216 34.0769 26.848C34.2049 26.48 34.3849 26.164 34.6169 25.9C34.8569 25.628 35.1409 25.424 35.4689 25.288C35.8049 25.144 36.1729 25.072 36.5729 25.072C37.1249 25.072 37.6009 25.196 38.0009 25.444C38.4009 25.692 38.7089 26.044 38.9249 26.5C39.1489 26.948 39.2609 27.476 39.2609 28.084C39.2609 28.548 39.1969 28.964 39.0689 29.332C38.9489 29.7 38.7689 30.016 38.5289 30.28C38.2969 30.544 38.0169 30.748 37.6889 30.892C37.3609 31.028 36.9889 31.096 36.5729 31.096ZM36.5729 30.484C36.9729 30.484 37.3169 30.392 37.6049 30.208C37.9009 30.016 38.1249 29.74 38.2769 29.38C38.4369 29.02 38.5169 28.588 38.5169 28.084C38.5169 27.324 38.3409 26.736 37.9889 26.32C37.6449 25.904 37.1729 25.696 36.5729 25.696C36.1809 25.696 35.8369 25.792 35.5409 25.984C35.2529 26.168 35.0289 26.44 34.8689 26.8C34.7169 27.152 34.6409 27.58 34.6409 28.084C34.6409 28.852 34.8169 29.444 35.1689 29.86C35.5209 30.276 35.9889 30.484 36.5729 30.484ZM41.1914 31.072C41.0714 31.072 40.9794 31.04 40.9154 30.976C40.8514 30.912 40.8194 30.82 40.8194 30.7V25.48C40.8194 25.352 40.8514 25.256 40.9154 25.192C40.9794 25.128 41.0714 25.096 41.1914 25.096C41.3034 25.096 41.3874 25.128 41.4434 25.192C41.5074 25.256 41.5394 25.352 41.5394 25.48V26.608L41.4074 26.536C41.5674 26.056 41.8394 25.692 42.2234 25.444C42.6154 25.196 43.0634 25.072 43.5674 25.072C44.0314 25.072 44.4154 25.156 44.7194 25.324C45.0314 25.484 45.2634 25.732 45.4154 26.068C45.5674 26.404 45.6434 26.824 45.6434 27.328V30.7C45.6434 30.82 45.6114 30.912 45.5474 30.976C45.4834 31.04 45.3954 31.072 45.2834 31.072C45.1634 31.072 45.0714 31.04 45.0074 30.976C44.9434 30.912 44.9114 30.82 44.9114 30.7V27.388C44.9114 26.804 44.7954 26.38 44.5634 26.116C44.3314 25.844 43.9634 25.708 43.4594 25.708C42.8834 25.708 42.4194 25.888 42.0674 26.248C41.7234 26.6 41.5514 27.076 41.5514 27.676V30.7C41.5514 30.948 41.4314 31.072 41.1914 31.072ZM49.3342 31.096C48.9422 31.096 48.5902 31.02 48.2782 30.868C47.9742 30.716 47.7302 30.508 47.5462 30.244C47.3702 29.98 47.2822 29.684 47.2822 29.356C47.2822 28.924 47.3902 28.584 47.6062 28.336C47.8222 28.088 48.1862 27.916 48.6982 27.82C49.2102 27.716 49.9142 27.664 50.8102 27.664H51.3262V28.204H50.8222C50.1022 28.204 49.5382 28.236 49.1302 28.3C48.7302 28.356 48.4502 28.464 48.2902 28.624C48.1302 28.784 48.0502 29.008 48.0502 29.296C48.0502 29.656 48.1742 29.948 48.4222 30.172C48.6702 30.396 49.0062 30.508 49.4302 30.508C49.7742 30.508 50.0742 30.428 50.3302 30.268C50.5942 30.1 50.8022 29.872 50.9542 29.584C51.1062 29.296 51.1822 28.968 51.1822 28.6V27.232C51.1822 26.696 51.0742 26.308 50.8582 26.068C50.6422 25.82 50.2982 25.696 49.8262 25.696C49.5222 25.696 49.2262 25.736 48.9382 25.816C48.6582 25.896 48.3582 26.024 48.0382 26.2C47.9502 26.248 47.8702 26.264 47.7982 26.248C47.7342 26.232 47.6822 26.2 47.6422 26.152C47.6102 26.104 47.5862 26.048 47.5702 25.984C47.5622 25.912 47.5742 25.844 47.6062 25.78C47.6382 25.716 47.6942 25.664 47.7742 25.624C48.1102 25.44 48.4502 25.304 48.7942 25.216C49.1462 25.12 49.4862 25.072 49.8142 25.072C50.2862 25.072 50.6742 25.152 50.9782 25.312C51.2902 25.472 51.5182 25.712 51.6622 26.032C51.8142 26.352 51.8902 26.764 51.8902 27.268V30.7C51.8902 30.82 51.8622 30.912 51.8062 30.976C51.7502 31.04 51.6662 31.072 51.5542 31.072C51.4422 31.072 51.3542 31.04 51.2902 30.976C51.2262 30.912 51.1942 30.82 51.1942 30.7V29.596H51.3142C51.2422 29.908 51.1142 30.176 50.9302 30.4C50.7462 30.624 50.5182 30.796 50.2462 30.916C49.9742 31.036 49.6702 31.096 49.3342 31.096ZM55.4838 31.096C54.9478 31.096 54.5318 30.928 54.2358 30.592C53.9478 30.256 53.8038 29.78 53.8038 29.164V22.84C53.8038 22.712 53.8358 22.62 53.8998 22.564C53.9638 22.5 54.0558 22.468 54.1758 22.468C54.2878 22.468 54.3758 22.5 54.4398 22.564C54.5038 22.62 54.5358 22.712 54.5358 22.84V29.08C54.5358 29.544 54.6278 29.892 54.8118 30.124C54.9958 30.348 55.2638 30.46 55.6158 30.46C55.6958 30.46 55.7638 30.456 55.8198 30.448C55.8758 30.44 55.9318 30.436 55.9878 30.436C56.0598 30.428 56.1118 30.444 56.1438 30.484C56.1838 30.516 56.2038 30.588 56.2038 30.7C56.2038 30.812 56.1758 30.896 56.1198 30.952C56.0638 31.008 55.9718 31.048 55.8438 31.072C55.7878 31.08 55.7278 31.084 55.6638 31.084C55.6078 31.092 55.5478 31.096 55.4838 31.096ZM57.5976 31.048C57.4776 31.048 57.3856 31.012 57.3216 30.94C57.2576 30.868 57.2256 30.772 57.2256 30.652V25.516C57.2256 25.388 57.2576 25.292 57.3216 25.228C57.3856 25.164 57.4776 25.132 57.5976 25.132C57.7096 25.132 57.7976 25.164 57.8616 25.228C57.9256 25.292 57.9576 25.388 57.9576 25.516V30.652C57.9576 30.772 57.9256 30.868 57.8616 30.94C57.8056 31.012 57.7176 31.048 57.5976 31.048ZM57.5976 23.68C57.4296 23.68 57.2976 23.636 57.2016 23.548C57.1136 23.46 57.0696 23.336 57.0696 23.176C57.0696 23.016 57.1136 22.896 57.2016 22.816C57.2976 22.728 57.4296 22.684 57.5976 22.684C57.7656 22.684 57.8936 22.728 57.9816 22.816C58.0776 22.896 58.1256 23.016 58.1256 23.176C58.1256 23.336 58.0776 23.46 57.9816 23.548C57.8936 23.636 57.7656 23.68 57.5976 23.68ZM59.8978 31C59.8178 31 59.7498 30.984 59.6938 30.952C59.6458 30.912 59.6098 30.864 59.5858 30.808C59.5698 30.744 59.5698 30.676 59.5858 30.604C59.6098 30.524 59.6538 30.448 59.7178 30.376L63.2338 25.564V25.768H59.8498C59.7458 25.768 59.6658 25.744 59.6098 25.696C59.5618 25.64 59.5378 25.564 59.5378 25.468C59.5378 25.38 59.5618 25.312 59.6098 25.264C59.6658 25.208 59.7458 25.18 59.8498 25.18H63.5938C63.6898 25.18 63.7658 25.2 63.8218 25.24C63.8858 25.272 63.9258 25.316 63.9418 25.372C63.9658 25.428 63.9698 25.492 63.9538 25.564C63.9378 25.636 63.9018 25.708 63.8458 25.78L60.2818 30.628V30.412H63.8218C64.0298 30.412 64.1338 30.508 64.1338 30.7C64.1338 30.796 64.1058 30.872 64.0498 30.928C63.9938 30.976 63.9178 31 63.8218 31H59.8978ZM67.8084 31.096C67.2084 31.096 66.6924 30.976 66.2604 30.736C65.8284 30.496 65.4964 30.152 65.2644 29.704C65.0324 29.256 64.9164 28.724 64.9164 28.108C64.9164 27.5 65.0324 26.972 65.2644 26.524C65.4964 26.068 65.8164 25.712 66.2244 25.456C66.6404 25.2 67.1164 25.072 67.6524 25.072C68.0444 25.072 68.3884 25.14 68.6844 25.276C68.9884 25.404 69.2444 25.592 69.4524 25.84C69.6684 26.08 69.8324 26.376 69.9444 26.728C70.0564 27.072 70.1124 27.464 70.1124 27.904C70.1124 28.016 70.0804 28.1 70.0164 28.156C69.9604 28.212 69.8804 28.24 69.7764 28.24H65.4444V27.7H69.6564L69.4644 27.856C69.4644 27.392 69.3964 27 69.2604 26.68C69.1244 26.352 68.9204 26.1 68.6484 25.924C68.3844 25.748 68.0564 25.66 67.6644 25.66C67.2244 25.66 66.8524 25.764 66.5484 25.972C66.2444 26.172 66.0164 26.452 65.8644 26.812C65.7124 27.164 65.6364 27.572 65.6364 28.036V28.096C65.6364 28.864 65.8244 29.456 66.2004 29.872C66.5764 30.28 67.1044 30.484 67.7844 30.484C68.0804 30.484 68.3644 30.444 68.6364 30.364C68.9164 30.284 69.1884 30.148 69.4524 29.956C69.5324 29.9 69.6084 29.872 69.6804 29.872C69.7604 29.872 69.8244 29.892 69.8724 29.932C69.9284 29.972 69.9644 30.024 69.9804 30.088C70.0044 30.144 70.0004 30.208 69.9684 30.28C69.9444 30.344 69.8924 30.404 69.8124 30.46C69.5564 30.668 69.2484 30.828 68.8884 30.94C68.5284 31.044 68.1684 31.096 67.8084 31.096ZM73.8245 31.096C73.3045 31.096 72.8485 30.976 72.4565 30.736C72.0725 30.488 71.7725 30.14 71.5565 29.692C71.3485 29.236 71.2445 28.7 71.2445 28.084C71.2445 27.468 71.3485 26.936 71.5565 26.488C71.7645 26.04 72.0605 25.692 72.4445 25.444C72.8365 25.196 73.2965 25.072 73.8245 25.072C74.3685 25.072 74.8325 25.212 75.2165 25.492C75.6005 25.772 75.8565 26.148 75.9845 26.62H75.8525V22.84C75.8525 22.712 75.8845 22.62 75.9485 22.564C76.0125 22.5 76.1005 22.468 76.2125 22.468C76.3325 22.468 76.4245 22.5 76.4885 22.564C76.5525 22.62 76.5845 22.712 76.5845 22.84V30.7C76.5845 30.82 76.5525 30.912 76.4885 30.976C76.4245 31.04 76.3365 31.072 76.2245 31.072C76.1045 31.072 76.0125 31.04 75.9485 30.976C75.8845 30.912 75.8525 30.82 75.8525 30.7V29.464L75.9845 29.548C75.8565 30.02 75.6005 30.396 75.2165 30.676C74.8325 30.956 74.3685 31.096 73.8245 31.096ZM73.9205 30.484C74.3205 30.484 74.6645 30.392 74.9525 30.208C75.2485 30.016 75.4725 29.74 75.6245 29.38C75.7845 29.02 75.8645 28.588 75.8645 28.084C75.8645 27.324 75.6885 26.736 75.3365 26.32C74.9925 25.904 74.5205 25.696 73.9205 25.696C73.5285 25.696 73.1845 25.792 72.8885 25.984C72.6005 26.168 72.3765 26.44 72.2165 26.8C72.0645 27.152 71.9885 27.58 71.9885 28.084C71.9885 28.852 72.1645 29.444 72.5165 29.86C72.8685 30.276 73.3365 30.484 73.9205 30.484ZM81.9023 33.232C81.7823 33.232 81.6903 33.2 81.6263 33.136C81.5623 33.072 81.5303 32.98 81.5303 32.86V25.48C81.5303 25.352 81.5623 25.256 81.6263 25.192C81.6903 25.128 81.7823 25.096 81.9023 25.096C82.0143 25.096 82.1023 25.128 82.1663 25.192C82.2303 25.256 82.2623 25.352 82.2623 25.48V26.704L82.1303 26.632C82.2663 26.152 82.5263 25.772 82.9103 25.492C83.2943 25.212 83.7583 25.072 84.3023 25.072C84.8223 25.072 85.2743 25.196 85.6583 25.444C86.0503 25.692 86.3503 26.04 86.5583 26.488C86.7743 26.936 86.8823 27.468 86.8823 28.084C86.8823 28.7 86.7743 29.236 86.5583 29.692C86.3503 30.14 86.0543 30.488 85.6703 30.736C85.2863 30.976 84.8303 31.096 84.3023 31.096C83.7583 31.096 83.2943 30.956 82.9103 30.676C82.5263 30.396 82.2663 30.024 82.1303 29.56H82.2623V32.86C82.2623 32.98 82.2303 33.072 82.1663 33.136C82.1023 33.2 82.0143 33.232 81.9023 33.232ZM84.1943 30.484C84.5863 30.484 84.9263 30.392 85.2143 30.208C85.5103 30.016 85.7383 29.74 85.8983 29.38C86.0583 29.02 86.1383 28.588 86.1383 28.084C86.1383 27.324 85.9623 26.736 85.6103 26.32C85.2583 25.904 84.7863 25.696 84.1943 25.696C83.8023 25.696 83.4583 25.792 83.1623 25.984C82.8743 26.168 82.6503 26.44 82.4903 26.8C82.3303 27.152 82.2503 27.58 82.2503 28.084C82.2503 28.852 82.4263 29.444 82.7783 29.86C83.1303 30.276 83.6023 30.484 84.1943 30.484ZM90.1127 31.096C89.5767 31.096 89.1607 30.928 88.8647 30.592C88.5767 30.256 88.4327 29.78 88.4327 29.164V22.84C88.4327 22.712 88.4647 22.62 88.5287 22.564C88.5927 22.5 88.6847 22.468 88.8047 22.468C88.9167 22.468 89.0047 22.5 89.0687 22.564C89.1327 22.62 89.1647 22.712 89.1647 22.84V29.08C89.1647 29.544 89.2567 29.892 89.4407 30.124C89.6247 30.348 89.8927 30.46 90.2447 30.46C90.3247 30.46 90.3927 30.456 90.4487 30.448C90.5047 30.44 90.5607 30.436 90.6167 30.436C90.6887 30.428 90.7407 30.444 90.7727 30.484C90.8127 30.516 90.8327 30.588 90.8327 30.7C90.8327 30.812 90.8047 30.896 90.7487 30.952C90.6927 31.008 90.6007 31.048 90.4727 31.072C90.4167 31.08 90.3567 31.084 90.2927 31.084C90.2367 31.092 90.1767 31.096 90.1127 31.096ZM93.6545 31.096C93.2625 31.096 92.9105 31.02 92.5985 30.868C92.2945 30.716 92.0505 30.508 91.8665 30.244C91.6905 29.98 91.6025 29.684 91.6025 29.356C91.6025 28.924 91.7105 28.584 91.9265 28.336C92.1425 28.088 92.5065 27.916 93.0185 27.82C93.5305 27.716 94.2345 27.664 95.1305 27.664H95.6465V28.204H95.1425C94.4225 28.204 93.8585 28.236 93.4505 28.3C93.0505 28.356 92.7705 28.464 92.6105 28.624C92.4505 28.784 92.3705 29.008 92.3705 29.296C92.3705 29.656 92.4945 29.948 92.7425 30.172C92.9905 30.396 93.3265 30.508 93.7505 30.508C94.0945 30.508 94.3945 30.428 94.6505 30.268C94.9145 30.1 95.1225 29.872 95.2745 29.584C95.4265 29.296 95.5025 28.968 95.5025 28.6V27.232C95.5025 26.696 95.3945 26.308 95.1785 26.068C94.9625 25.82 94.6185 25.696 94.1465 25.696C93.8425 25.696 93.5465 25.736 93.2585 25.816C92.9785 25.896 92.6785 26.024 92.3585 26.2C92.2705 26.248 92.1905 26.264 92.1185 26.248C92.0545 26.232 92.0025 26.2 91.9625 26.152C91.9305 26.104 91.9065 26.048 91.8905 25.984C91.8825 25.912 91.8945 25.844 91.9265 25.78C91.9585 25.716 92.0145 25.664 92.0945 25.624C92.4305 25.44 92.7705 25.304 93.1145 25.216C93.4665 25.12 93.8065 25.072 94.1345 25.072C94.6065 25.072 94.9945 25.152 95.2985 25.312C95.6105 25.472 95.8385 25.712 95.9825 26.032C96.1345 26.352 96.2105 26.764 96.2105 27.268V30.7C96.2105 30.82 96.1825 30.912 96.1265 30.976C96.0705 31.04 95.9865 31.072 95.8745 31.072C95.7625 31.072 95.6745 31.04 95.6105 30.976C95.5465 30.912 95.5145 30.82 95.5145 30.7V29.596H95.6345C95.5625 29.908 95.4345 30.176 95.2505 30.4C95.0665 30.624 94.8385 30.796 94.5665 30.916C94.2945 31.036 93.9905 31.096 93.6545 31.096ZM98.4961 31.072C98.3761 31.072 98.2841 31.04 98.2201 30.976C98.1561 30.912 98.1241 30.82 98.1241 30.7V25.48C98.1241 25.352 98.1561 25.256 98.2201 25.192C98.2841 25.128 98.3761 25.096 98.4961 25.096C98.6081 25.096 98.6921 25.128 98.7481 25.192C98.8121 25.256 98.8441 25.352 98.8441 25.48V26.608L98.7121 26.536C98.8721 26.056 99.1441 25.692 99.5281 25.444C99.9201 25.196 100.368 25.072 100.872 25.072C101.336 25.072 101.72 25.156 102.024 25.324C102.336 25.484 102.568 25.732 102.72 26.068C102.872 26.404 102.948 26.824 102.948 27.328V30.7C102.948 30.82 102.916 30.912 102.852 30.976C102.788 31.04 102.7 31.072 102.588 31.072C102.468 31.072 102.376 31.04 102.312 30.976C102.248 30.912 102.216 30.82 102.216 30.7V27.388C102.216 26.804 102.1 26.38 101.868 26.116C101.636 25.844 101.268 25.708 100.764 25.708C100.188 25.708 99.7241 25.888 99.3721 26.248C99.0281 26.6 98.8561 27.076 98.8561 27.676V30.7C98.8561 30.948 98.7361 31.072 98.4961 31.072Z" fill="#666666"/>
<line x1="1.37219" y1="51.0038" x2="273" y2="51.0038" stroke="#D2CFDF"/>
<line x1="1.37219" y1="83.7988" x2="273" y2="83.7988" stroke="#D2CFDF"/>
<line x1="1.37219" y1="116.594" x2="273" y2="116.594" stroke="#D2CFDF"/>
<line x1="1.37219" y1="149.389" x2="273" y2="149.389" stroke="#D2CFDF"/>
<rect x="14.0096" y="114.787" width="35.806" height="34.5262" rx="5.26559" fill="#A9DEF4"/>
<rect x="66.6655" y="98.0474" width="35.806" height="51.2662" rx="5.26559" fill="#9CC9DC"/>
<rect x="119.321" y="80.2611" width="35.806" height="69.0525" rx="5.26559" fill="#69A8C2"/>
<rect x="171.977" y="63.521" width="35.806" height="85.7925" rx="5.26559" fill="#5190AA"/>
<rect x="224.633" y="45.7349" width="35.806" height="103.579" rx="5.26559" fill="#31728D"/>
<path d="M31.9126 116.88C119.321 102.792 176.19 86.2382 243.589 45.7349" stroke="#111111" stroke-width="2.10624"/>
<ellipse cx="31.5633" cy="115.569" rx="11.3178" ry="11.244" fill="white"/>
<ellipse cx="242.965" cy="46.5962" rx="11.3178" ry="11.244" fill="white"/>
<ellipse cx="242.964" cy="46.5961" rx="7.54522" ry="7.49601" fill="#31728D"/>
<ellipse cx="31.5669" cy="115.649" rx="7.54522" ry="7.49601" fill="#A9DEF4"/>
<g filter="url(#filter0_d_2_1424)">
<rect x="15.0626" y="78.1686" width="33.9535" height="22.488" rx="4.71576" fill="white" shape-rendering="crispEdges"/>
<path d="M25.6047 93.5086C25.3567 93.5086 25.1647 93.4406 25.0287 93.3046C24.9007 93.1606 24.8367 92.9606 24.8367 92.7046V89.0566L25.1607 89.9806L22.2687 85.9126C22.1647 85.7686 22.1167 85.6166 22.1247 85.4566C22.1407 85.2886 22.2087 85.1486 22.3287 85.0366C22.4487 84.9166 22.6167 84.8566 22.8327 84.8566C22.9927 84.8566 23.1367 84.8966 23.2647 84.9766C23.4007 85.0566 23.5287 85.1806 23.6487 85.3486L25.7967 88.3966H25.4607L27.6207 85.3486C27.7487 85.1726 27.8727 85.0486 27.9927 84.9766C28.1127 84.8966 28.2607 84.8566 28.4367 84.8566C28.6447 84.8566 28.8047 84.9126 28.9167 85.0246C29.0367 85.1286 29.0967 85.2606 29.0967 85.4206C29.1047 85.5806 29.0487 85.7486 28.9287 85.9246L26.0607 89.9806L26.3727 89.0566V92.7046C26.3727 93.2406 26.1167 93.5086 25.6047 93.5086ZM31.7746 93.5326C31.1666 93.5326 30.6386 93.4086 30.1906 93.1606C29.7426 92.9126 29.3946 92.5606 29.1466 92.1046C28.8986 91.6406 28.7746 91.0966 28.7746 90.4726C28.7746 90.0006 28.8426 89.5806 28.9786 89.2126C29.1226 88.8366 29.3266 88.5166 29.5906 88.2526C29.8546 87.9806 30.1706 87.7766 30.5386 87.6406C30.9066 87.4966 31.3186 87.4246 31.7746 87.4246C32.3826 87.4246 32.9106 87.5486 33.3586 87.7966C33.8066 88.0446 34.1546 88.3966 34.4026 88.8526C34.6506 89.3086 34.7746 89.8486 34.7746 90.4726C34.7746 90.9446 34.7026 91.3686 34.5586 91.7446C34.4226 92.1206 34.2226 92.4446 33.9586 92.7166C33.6946 92.9806 33.3786 93.1846 33.0106 93.3286C32.6426 93.4646 32.2306 93.5326 31.7746 93.5326ZM31.7746 92.3926C32.0706 92.3926 32.3306 92.3206 32.5546 92.1766C32.7786 92.0326 32.9506 91.8206 33.0706 91.5406C33.1986 91.2526 33.2626 90.8966 33.2626 90.4726C33.2626 89.8326 33.1266 89.3566 32.8546 89.0446C32.5826 88.7246 32.2226 88.5646 31.7746 88.5646C31.4786 88.5646 31.2186 88.6366 30.9946 88.7806C30.7706 88.9166 30.5946 89.1286 30.4666 89.4166C30.3466 89.6966 30.2866 90.0486 30.2866 90.4726C30.2866 91.1046 30.4226 91.5846 30.6946 91.9126C30.9666 92.2326 31.3266 92.3926 31.7746 92.3926ZM38.1367 93.5326C37.6487 93.5326 37.2447 93.4446 36.9247 93.2686C36.6047 93.0846 36.3647 92.8126 36.2047 92.4526C36.0527 92.0926 35.9767 91.6446 35.9767 91.1086V88.2046C35.9767 87.9486 36.0407 87.7606 36.1687 87.6406C36.2967 87.5126 36.4807 87.4486 36.7207 87.4486C36.9607 87.4486 37.1447 87.5126 37.2727 87.6406C37.4087 87.7606 37.4767 87.9486 37.4767 88.2046V91.1326C37.4767 91.5486 37.5607 91.8566 37.7287 92.0566C37.8967 92.2566 38.1647 92.3566 38.5327 92.3566C38.9327 92.3566 39.2607 92.2206 39.5167 91.9486C39.7727 91.6686 39.9007 91.3006 39.9007 90.8446V88.2046C39.9007 87.9486 39.9647 87.7606 40.0927 87.6406C40.2207 87.5126 40.4047 87.4486 40.6447 87.4486C40.8847 87.4486 41.0687 87.5126 41.1967 87.6406C41.3327 87.7606 41.4007 87.9486 41.4007 88.2046V92.7406C41.4007 93.2526 41.1567 93.5086 40.6687 93.5086C40.4367 93.5086 40.2567 93.4446 40.1287 93.3166C40.0007 93.1806 39.9367 92.9886 39.9367 92.7406V91.8286L40.1047 92.1886C39.9367 92.6206 39.6807 92.9526 39.3367 93.1846C39.0007 93.4166 38.6007 93.5326 38.1367 93.5326Z" fill="#111111"/>
</g>
<path d="M11.7123 165.187C11.4963 165.187 11.3203 165.135 11.1843 165.031C11.0563 164.927 10.9523 164.763 10.8723 164.539L8.36426 157.447C8.27626 157.191 8.29226 156.975 8.41226 156.799C8.54026 156.623 8.75226 156.535 9.04826 156.535C9.26426 156.535 9.43226 156.587 9.55226 156.691C9.67226 156.787 9.76826 156.943 9.84026 157.159L12.0003 163.567H11.5203L13.7763 157.171C13.8563 156.955 13.9563 156.795 14.0763 156.691C14.1963 156.587 14.3523 156.535 14.5443 156.535C14.7363 156.535 14.8883 156.587 15.0003 156.691C15.1123 156.795 15.2083 156.959 15.2883 157.183L17.4723 163.567H17.0523L19.2483 157.159C19.3203 156.951 19.4163 156.795 19.5363 156.691C19.6563 156.587 19.8203 156.535 20.0283 156.535C20.2843 156.535 20.4723 156.623 20.5923 156.799C20.7123 156.975 20.7283 157.191 20.6403 157.447L18.1083 164.551C18.0283 164.767 17.9243 164.927 17.7963 165.031C17.6683 165.135 17.4963 165.187 17.2803 165.187C17.0643 165.187 16.8923 165.135 16.7643 165.031C16.6363 164.927 16.5323 164.763 16.4523 164.539L14.3643 158.587H14.6403L12.5283 164.551C12.4483 164.767 12.3443 164.927 12.2163 165.031C12.0963 165.135 11.9283 165.187 11.7123 165.187ZM22.9116 165.091C22.6476 165.091 22.4436 165.023 22.2996 164.887C22.1636 164.743 22.0956 164.539 22.0956 164.275V157.447C22.0956 157.183 22.1636 156.983 22.2996 156.847C22.4436 156.703 22.6476 156.631 22.9116 156.631H27.1956C27.3956 156.631 27.5476 156.683 27.6516 156.787C27.7636 156.891 27.8196 157.039 27.8196 157.231C27.8196 157.431 27.7636 157.587 27.6516 157.699C27.5476 157.803 27.3956 157.855 27.1956 157.855H23.5716V160.183H26.9316C27.1396 160.183 27.2956 160.235 27.3996 160.339C27.5036 160.443 27.5556 160.595 27.5556 160.795C27.5556 160.995 27.5036 161.147 27.3996 161.251C27.2956 161.355 27.1396 161.407 26.9316 161.407H23.5716V163.867H27.1956C27.3956 163.867 27.5476 163.919 27.6516 164.023C27.7636 164.127 27.8196 164.279 27.8196 164.479C27.8196 164.679 27.7636 164.831 27.6516 164.935C27.5476 165.039 27.3956 165.091 27.1956 165.091H22.9116ZM30.0718 165.091C29.8078 165.091 29.6038 165.023 29.4598 164.887C29.3238 164.743 29.2558 164.539 29.2558 164.275V157.447C29.2558 157.183 29.3238 156.983 29.4598 156.847C29.6038 156.703 29.8078 156.631 30.0718 156.631H34.3558C34.5558 156.631 34.7078 156.683 34.8118 156.787C34.9238 156.891 34.9798 157.039 34.9798 157.231C34.9798 157.431 34.9238 157.587 34.8118 157.699C34.7078 157.803 34.5558 157.855 34.3558 157.855H30.7318V160.183H34.0918C34.2998 160.183 34.4558 160.235 34.5598 160.339C34.6638 160.443 34.7158 160.595 34.7158 160.795C34.7158 160.995 34.6638 161.147 34.5598 161.251C34.4558 161.355 34.2998 161.407 34.0918 161.407H30.7318V163.867H34.3558C34.5558 163.867 34.7078 163.919 34.8118 164.023C34.9238 164.127 34.9798 164.279 34.9798 164.479C34.9798 164.679 34.9238 164.831 34.8118 164.935C34.7078 165.039 34.5558 165.091 34.3558 165.091H30.0718ZM37.1839 165.187C36.9359 165.187 36.7439 165.119 36.6079 164.983C36.4799 164.839 36.4159 164.643 36.4159 164.395V157.315C36.4159 157.059 36.4799 156.867 36.6079 156.739C36.7439 156.603 36.9359 156.535 37.1839 156.535C37.4319 156.535 37.6199 156.603 37.7479 156.739C37.8839 156.867 37.9519 157.059 37.9519 157.315V160.375H37.9759L41.4199 156.919C41.5479 156.791 41.6759 156.695 41.8039 156.631C41.9319 156.567 42.0759 156.535 42.2359 156.535C42.4679 156.535 42.6319 156.595 42.7279 156.715C42.8319 156.835 42.8719 156.975 42.8479 157.135C42.8319 157.295 42.7559 157.443 42.6199 157.579L39.1159 161.047L39.1279 160.351L42.7879 164.071C42.9559 164.231 43.0439 164.399 43.0519 164.575C43.0599 164.751 43.0039 164.899 42.8839 165.019C42.7719 165.131 42.6039 165.187 42.3799 165.187C42.1879 165.187 42.0319 165.147 41.9119 165.067C41.7999 164.987 41.6679 164.871 41.5159 164.719L37.9759 161.179H37.9519V164.395C37.9519 164.643 37.8879 164.839 37.7599 164.983C37.6319 165.119 37.4399 165.187 37.1839 165.187ZM48.6022 165.091C48.3942 165.091 48.2302 165.035 48.1102 164.923C47.9982 164.803 47.9422 164.643 47.9422 164.443C47.9422 164.235 47.9982 164.079 48.1102 163.975C48.2302 163.871 48.3942 163.819 48.6022 163.819H49.9462V157.927H50.6902L48.9262 158.995C48.7742 159.083 48.6302 159.119 48.4942 159.103C48.3662 159.079 48.2542 159.023 48.1582 158.935C48.0702 158.839 48.0102 158.727 47.9782 158.599C47.9462 158.471 47.9542 158.343 48.0022 158.215C48.0582 158.079 48.1622 157.967 48.3142 157.879L49.9702 156.883C50.1302 156.787 50.2902 156.707 50.4502 156.643C50.6102 156.571 50.7582 156.535 50.8942 156.535C51.0622 156.535 51.2022 156.583 51.3142 156.679C51.4262 156.767 51.4822 156.915 51.4822 157.123V163.819H52.7062C52.9142 163.819 53.0742 163.871 53.1862 163.975C53.3062 164.079 53.3662 164.235 53.3662 164.443C53.3662 164.651 53.3062 164.811 53.1862 164.923C53.0742 165.035 52.9142 165.091 52.7062 165.091H48.6022Z" fill="#111111"/>
<path d="M224.696 165.187C224.48 165.187 224.304 165.135 224.168 165.031C224.04 164.927 223.936 164.763 223.856 164.539L221.348 157.447C221.26 157.191 221.276 156.975 221.396 156.799C221.524 156.623 221.736 156.535 222.032 156.535C222.248 156.535 222.416 156.587 222.536 156.691C222.656 156.787 222.752 156.943 222.824 157.159L224.984 163.567H224.504L226.76 157.171C226.84 156.955 226.94 156.795 227.06 156.691C227.18 156.587 227.336 156.535 227.528 156.535C227.72 156.535 227.872 156.587 227.984 156.691C228.096 156.795 228.192 156.959 228.272 157.183L230.456 163.567H230.036L232.232 157.159C232.304 156.951 232.4 156.795 232.52 156.691C232.64 156.587 232.804 156.535 233.012 156.535C233.268 156.535 233.456 156.623 233.576 156.799C233.696 156.975 233.712 157.191 233.624 157.447L231.092 164.551C231.012 164.767 230.908 164.927 230.78 165.031C230.652 165.135 230.48 165.187 230.264 165.187C230.048 165.187 229.876 165.135 229.748 165.031C229.62 164.927 229.516 164.763 229.436 164.539L227.348 158.587H227.624L225.512 164.551C225.432 164.767 225.328 164.927 225.2 165.031C225.08 165.135 224.912 165.187 224.696 165.187ZM235.896 165.091C235.632 165.091 235.428 165.023 235.284 164.887C235.148 164.743 235.08 164.539 235.08 164.275V157.447C235.08 157.183 235.148 156.983 235.284 156.847C235.428 156.703 235.632 156.631 235.896 156.631H240.18C240.38 156.631 240.532 156.683 240.636 156.787C240.748 156.891 240.804 157.039 240.804 157.231C240.804 157.431 240.748 157.587 240.636 157.699C240.532 157.803 240.38 157.855 240.18 157.855H236.556V160.183H239.916C240.124 160.183 240.28 160.235 240.384 160.339C240.488 160.443 240.54 160.595 240.54 160.795C240.54 160.995 240.488 161.147 240.384 161.251C240.28 161.355 240.124 161.407 239.916 161.407H236.556V163.867H240.18C240.38 163.867 240.532 163.919 240.636 164.023C240.748 164.127 240.804 164.279 240.804 164.479C240.804 164.679 240.748 164.831 240.636 164.935C240.532 165.039 240.38 165.091 240.18 165.091H235.896ZM243.056 165.091C242.792 165.091 242.588 165.023 242.444 164.887C242.308 164.743 242.24 164.539 242.24 164.275V157.447C242.24 157.183 242.308 156.983 242.444 156.847C242.588 156.703 242.792 156.631 243.056 156.631H247.34C247.54 156.631 247.692 156.683 247.796 156.787C247.908 156.891 247.964 157.039 247.964 157.231C247.964 157.431 247.908 157.587 247.796 157.699C247.692 157.803 247.54 157.855 247.34 157.855H243.716V160.183H247.076C247.284 160.183 247.44 160.235 247.544 160.339C247.648 160.443 247.7 160.595 247.7 160.795C247.7 160.995 247.648 161.147 247.544 161.251C247.44 161.355 247.284 161.407 247.076 161.407H243.716V163.867H247.34C247.54 163.867 247.692 163.919 247.796 164.023C247.908 164.127 247.964 164.279 247.964 164.479C247.964 164.679 247.908 164.831 247.796 164.935C247.692 165.039 247.54 165.091 247.34 165.091H243.056ZM250.168 165.187C249.92 165.187 249.728 165.119 249.592 164.983C249.464 164.839 249.4 164.643 249.4 164.395V157.315C249.4 157.059 249.464 156.867 249.592 156.739C249.728 156.603 249.92 156.535 250.168 156.535C250.416 156.535 250.604 156.603 250.732 156.739C250.868 156.867 250.936 157.059 250.936 157.315V160.375H250.96L254.404 156.919C254.532 156.791 254.66 156.695 254.788 156.631C254.916 156.567 255.06 156.535 255.22 156.535C255.452 156.535 255.616 156.595 255.712 156.715C255.816 156.835 255.856 156.975 255.832 157.135C255.816 157.295 255.74 157.443 255.604 157.579L252.1 161.047L252.112 160.351L255.772 164.071C255.94 164.231 256.028 164.399 256.036 164.575C256.044 164.751 255.988 164.899 255.868 165.019C255.756 165.131 255.588 165.187 255.364 165.187C255.172 165.187 255.016 165.147 254.896 165.067C254.784 164.987 254.652 164.871 254.5 164.719L250.96 161.179H250.936V164.395C250.936 164.643 250.872 164.839 250.744 164.983C250.616 165.119 250.424 165.187 250.168 165.187ZM264.67 165.187C264.43 165.187 264.242 165.123 264.106 164.995C263.97 164.859 263.902 164.667 263.902 164.419V163.483H260.938C260.69 163.483 260.49 163.431 260.338 163.327C260.194 163.223 260.122 163.059 260.122 162.835C260.122 162.707 260.154 162.567 260.218 162.415C260.29 162.263 260.414 162.063 260.59 161.815L263.878 157.051C263.99 156.883 264.114 156.755 264.25 156.667C264.386 156.579 264.542 156.535 264.718 156.535C264.926 156.535 265.098 156.599 265.234 156.727C265.37 156.847 265.438 157.039 265.438 157.303V162.211H266.026C266.258 162.211 266.43 162.267 266.542 162.379C266.662 162.483 266.722 162.639 266.722 162.847C266.722 163.055 266.662 163.215 266.542 163.327C266.43 163.431 266.258 163.483 266.026 163.483H265.438V164.419C265.438 164.667 265.37 164.859 265.234 164.995C265.098 165.123 264.91 165.187 264.67 165.187ZM263.902 162.211V158.467H264.25L261.418 162.619V162.211H263.902Z" fill="#111111"/>
<g filter="url(#filter1_d_2_1424)">
<rect x="224.633" y="9.11597" width="35.5395" height="22.362" rx="4.71576" fill="white" shape-rendering="crispEdges"/>
<path d="M234.323 24.417C233.387 24.417 232.595 24.241 231.947 23.889C231.307 23.537 230.819 23.037 230.483 22.389C230.147 21.741 229.979 20.973 229.979 20.085C229.979 19.413 230.075 18.809 230.267 18.273C230.467 17.737 230.751 17.281 231.119 16.905C231.495 16.521 231.951 16.229 232.487 16.029C233.023 15.821 233.631 15.717 234.311 15.717C234.759 15.717 235.207 15.773 235.655 15.885C236.111 15.989 236.539 16.169 236.939 16.425C237.075 16.513 237.163 16.621 237.203 16.749C237.251 16.877 237.259 17.009 237.227 17.145C237.195 17.273 237.135 17.385 237.047 17.481C236.959 17.577 236.847 17.637 236.711 17.661C236.583 17.685 236.439 17.653 236.279 17.565C235.975 17.389 235.667 17.261 235.355 17.181C235.043 17.101 234.695 17.061 234.311 17.061C233.719 17.061 233.219 17.181 232.811 17.421C232.403 17.653 232.095 17.993 231.887 18.441C231.687 18.889 231.587 19.437 231.587 20.085C231.587 21.069 231.823 21.817 232.295 22.329C232.767 22.841 233.467 23.097 234.395 23.097C234.715 23.097 235.039 23.065 235.367 23.001C235.695 22.937 236.015 22.849 236.327 22.737L236.027 23.421V20.865H234.707C234.507 20.865 234.351 20.813 234.239 20.709C234.135 20.605 234.083 20.465 234.083 20.289C234.083 20.105 234.135 19.965 234.239 19.869C234.351 19.773 234.507 19.725 234.707 19.725H236.687C236.887 19.725 237.039 19.781 237.143 19.893C237.255 19.997 237.311 20.149 237.311 20.349V23.265C237.311 23.441 237.275 23.589 237.203 23.709C237.139 23.829 237.031 23.917 236.879 23.973C236.527 24.101 236.123 24.209 235.667 24.297C235.211 24.377 234.763 24.417 234.323 24.417ZM241.623 24.417C241.015 24.417 240.487 24.293 240.039 24.045C239.591 23.797 239.243 23.445 238.995 22.989C238.747 22.525 238.623 21.981 238.623 21.357C238.623 20.885 238.691 20.465 238.827 20.097C238.971 19.721 239.175 19.401 239.439 19.137C239.703 18.865 240.019 18.661 240.387 18.525C240.755 18.381 241.167 18.309 241.623 18.309C242.231 18.309 242.759 18.433 243.207 18.681C243.655 18.929 244.003 19.281 244.251 19.737C244.499 20.193 244.623 20.733 244.623 21.357C244.623 21.829 244.551 22.253 244.407 22.629C244.271 23.005 244.071 23.329 243.807 23.601C243.543 23.865 243.227 24.069 242.859 24.213C242.491 24.349 242.079 24.417 241.623 24.417ZM241.623 23.277C241.919 23.277 242.179 23.205 242.403 23.061C242.627 22.917 242.799 22.705 242.919 22.425C243.047 22.137 243.111 21.781 243.111 21.357C243.111 20.717 242.975 20.241 242.703 19.929C242.431 19.609 242.071 19.449 241.623 19.449C241.327 19.449 241.067 19.521 240.843 19.665C240.619 19.801 240.443 20.013 240.315 20.301C240.195 20.581 240.135 20.933 240.135 21.357C240.135 21.989 240.271 22.469 240.543 22.797C240.815 23.117 241.175 23.277 241.623 23.277ZM247.793 24.417C247.369 24.417 246.989 24.337 246.653 24.177C246.325 24.009 246.065 23.785 245.873 23.505C245.689 23.225 245.597 22.909 245.597 22.557C245.597 22.125 245.709 21.785 245.933 21.537C246.157 21.281 246.521 21.097 247.025 20.985C247.529 20.873 248.205 20.817 249.053 20.817H249.653V21.681H249.065C248.569 21.681 248.173 21.705 247.877 21.753C247.581 21.801 247.369 21.885 247.241 22.005C247.121 22.117 247.061 22.277 247.061 22.485C247.061 22.749 247.153 22.965 247.337 23.133C247.521 23.301 247.777 23.385 248.105 23.385C248.369 23.385 248.601 23.325 248.801 23.205C249.009 23.077 249.173 22.905 249.293 22.689C249.413 22.473 249.473 22.225 249.473 21.945V20.565C249.473 20.165 249.385 19.877 249.209 19.701C249.033 19.525 248.737 19.437 248.321 19.437C248.089 19.437 247.837 19.465 247.565 19.521C247.301 19.577 247.021 19.673 246.725 19.809C246.573 19.881 246.437 19.901 246.317 19.869C246.205 19.837 246.117 19.773 246.053 19.677C245.989 19.573 245.957 19.461 245.957 19.341C245.957 19.221 245.989 19.105 246.053 18.993C246.117 18.873 246.225 18.785 246.377 18.729C246.745 18.577 247.097 18.469 247.433 18.405C247.777 18.341 248.089 18.309 248.369 18.309C248.945 18.309 249.417 18.397 249.785 18.573C250.161 18.749 250.441 19.017 250.625 19.377C250.809 19.729 250.901 20.185 250.901 20.745V23.625C250.901 23.873 250.841 24.065 250.721 24.201C250.601 24.329 250.429 24.393 250.205 24.393C249.981 24.393 249.805 24.329 249.677 24.201C249.557 24.065 249.497 23.873 249.497 23.625V23.049H249.593C249.537 23.329 249.425 23.573 249.257 23.781C249.097 23.981 248.893 24.137 248.645 24.249C248.397 24.361 248.113 24.417 247.793 24.417ZM254.427 24.417C253.763 24.417 253.263 24.229 252.927 23.853C252.591 23.469 252.423 22.909 252.423 22.173V16.497C252.423 16.249 252.487 16.061 252.615 15.933C252.743 15.805 252.927 15.741 253.167 15.741C253.407 15.741 253.591 15.805 253.719 15.933C253.855 16.061 253.923 16.249 253.923 16.497V22.101C253.923 22.469 253.999 22.741 254.151 22.917C254.311 23.093 254.535 23.181 254.823 23.181C254.887 23.181 254.947 23.181 255.003 23.181C255.059 23.173 255.115 23.165 255.171 23.157C255.283 23.141 255.359 23.173 255.399 23.253C255.439 23.325 255.459 23.477 255.459 23.709C255.459 23.909 255.419 24.065 255.339 24.177C255.259 24.289 255.127 24.357 254.943 24.381C254.863 24.389 254.779 24.397 254.691 24.405C254.603 24.413 254.515 24.417 254.427 24.417Z" fill="#111111"/>
</g>
<defs>
<filter id="filter0_d_2_1424" x="4.53144" y="69.7436" width="55.0159" height="43.5504" filterUnits="userSpaceOnUse" color-interpolation-filters="sRGB">
<feFlood flood-opacity="0" result="BackgroundImageFix"/>
<feColorMatrix in="SourceAlpha" type="matrix" values="0 0 0 0 0 0 0 0 0 0 0 0 0 0 0 0 0 0 127 0" result="hardAlpha"/>
<feOffset dy="2.10624"/>
<feGaussianBlur stdDeviation="5.26559"/>
<feComposite in2="hardAlpha" operator="out"/>
<feColorMatrix type="matrix" values="0 0 0 0 0 0 0 0 0 0 0 0 0 0 0 0 0 0 0.15 0"/>
<feBlend mode="normal" in2="BackgroundImageFix" result="effect1_dropShadow_2_1424"/>
<feBlend mode="normal" in="SourceGraphic" in2="effect1_dropShadow_2_1424" result="shape"/>
</filter>
<filter id="filter1_d_2_1424" x="214.102" y="0.691022" width="56.6019" height="43.4244" filterUnits="userSpaceOnUse" color-interpolation-filters="sRGB">
<feFlood flood-opacity="0" result="BackgroundImageFix"/>
<feColorMatrix in="SourceAlpha" type="matrix" values="0 0 0 0 0 0 0 0 0 0 0 0 0 0 0 0 0 0 127 0" result="hardAlpha"/>
<feOffset dy="2.10624"/>
<feGaussianBlur stdDeviation="5.26559"/>
<feComposite in2="hardAlpha" operator="out"/>
<feColorMatrix type="matrix" values="0 0 0 0 0 0 0 0 0 0 0 0 0 0 0 0 0 0 0.15 0"/>
<feBlend mode="normal" in2="BackgroundImageFix" result="effect1_dropShadow_2_1424"/>
<feBlend mode="normal" in="SourceGraphic" in2="effect1_dropShadow_2_1424" result="shape"/>
</filter>
</defs>
</svg>
