<svg width="19" height="20" viewBox="0 0 19 20" fill="none" xmlns="http://www.w3.org/2000/svg">
<g id="material-symbols:check-small-rounded">
<path id="Vector" d="M7.91666 11.2667L12.5875 6.59588C12.7326 6.45074 12.9174 6.37817 13.1417 6.37817C13.366 6.37817 13.5507 6.45074 13.6958 6.59588C13.841 6.74102 13.9135 6.92574 13.9135 7.15005C13.9135 7.37435 13.841 7.55908 13.6958 7.70422L8.47083 12.9292C8.3125 13.0875 8.12778 13.1667 7.91666 13.1667C7.70555 13.1667 7.52083 13.0875 7.3625 12.9292L5.30416 10.8709C5.15903 10.7257 5.08646 10.541 5.08646 10.3167C5.08646 10.0924 5.15903 9.90769 5.30416 9.76255C5.4493 9.61741 5.63403 9.54484 5.85833 9.54484C6.08264 9.54484 6.26736 9.61741 6.4125 9.76255L7.91666 11.2667Z" fill="white"/>
</g>
</svg>
