<svg width="127" height="30" viewBox="0 0 127 30" fill="none" xmlns="http://www.w3.org/2000/svg">
<path d="M38.2446 24.3608C37.9127 24.3608 37.6472 24.2861 37.448 24.1367C37.2488 23.9874 37.1327 23.7882 37.0995 23.5393C37.0663 23.2903 37.1161 23.0082 37.2488 22.6929L43.9953 7.55699C44.1612 7.15867 44.3687 6.87654 44.6176 6.71057C44.8832 6.54461 45.1736 6.46163 45.4889 6.46163C45.7877 6.46163 46.0615 6.54461 46.3105 6.71057C46.576 6.87654 46.7917 7.15867 46.9577 7.55699L53.7041 22.6929C53.8535 23.0082 53.9116 23.2986 53.8784 23.5642C53.8452 23.8131 53.7373 24.0123 53.5548 24.1616C53.3722 24.2944 53.115 24.3608 52.783 24.3608C52.4179 24.3608 52.1275 24.2695 51.9117 24.0869C51.696 23.9044 51.5051 23.6222 51.3391 23.2405L49.5965 19.2076L50.7666 19.9047H40.1615L41.3067 19.2076L39.5889 23.2405C39.423 23.6388 39.2404 23.9293 39.0413 24.1118C38.8421 24.2778 38.5766 24.3608 38.2446 24.3608ZM45.4391 9.49876L41.6801 18.411L41.0577 17.8135H49.8455L49.2729 18.411L45.4889 9.49876H45.4391ZM57.0534 24.3608C56.6551 24.3608 56.3398 24.2529 56.1074 24.0372C55.8917 23.8048 55.7838 23.4895 55.7838 23.0912V13.9798H54.3897C54.0744 13.9798 53.8254 13.8968 53.6429 13.7308C53.4603 13.5483 53.369 13.3076 53.369 13.0089C53.369 12.6936 53.4603 12.4529 53.6429 12.2869C53.8254 12.121 54.0744 12.038 54.3897 12.038H56.5057L55.7838 12.7102V11.8139C55.7838 10.1709 56.1904 8.93448 57.0036 8.10467C57.8168 7.25825 59.0035 6.76036 60.5635 6.611L61.3353 6.56121C61.6174 6.52801 61.8415 6.5695 62.0074 6.68568C62.1734 6.80185 62.2813 6.95122 62.331 7.13378C62.3808 7.31634 62.3808 7.5072 62.331 7.70635C62.2979 7.88891 62.2149 8.05488 62.0821 8.20424C61.9493 8.35361 61.7834 8.43659 61.5842 8.45319L61.1112 8.47808C60.132 8.56107 59.4184 8.8432 58.9703 9.3245C58.5222 9.7892 58.2981 10.5028 58.2981 11.4654V12.4363L57.9496 12.038H60.7129C61.0614 12.038 61.3187 12.121 61.4846 12.2869C61.6672 12.4529 61.7585 12.6936 61.7585 13.0089C61.7585 13.3076 61.6672 13.5483 61.4846 13.7308C61.3187 13.8968 61.0614 13.9798 60.7129 13.9798H58.2981V23.0912C58.2981 23.9376 57.8832 24.3608 57.0534 24.3608ZM64.1017 24.3608C63.7034 24.3608 63.388 24.2529 63.1557 24.0372C62.9399 23.8048 62.832 23.4895 62.832 23.0912V13.9798H61.438C61.1226 13.9798 60.8737 13.8968 60.6911 13.7308C60.5086 13.5483 60.4173 13.3076 60.4173 13.0089C60.4173 12.6936 60.5086 12.4529 60.6911 12.2869C60.8737 12.121 61.1226 12.038 61.438 12.038H63.554L62.832 12.7102V11.8139C62.832 10.1709 63.2387 8.93448 64.0519 8.10467C64.8651 7.25825 66.0517 6.76036 67.6118 6.611L68.3835 6.56121C68.6657 6.52801 68.8897 6.5695 69.0557 6.68568C69.2216 6.80185 69.3295 6.95122 69.3793 7.13378C69.4291 7.31634 69.4291 7.5072 69.3793 7.70635C69.3461 7.88891 69.2631 8.05488 69.1304 8.20424C68.9976 8.35361 68.8316 8.43659 68.6325 8.45319L68.1595 8.47808C67.1803 8.56107 66.4666 8.8432 66.0185 9.3245C65.5704 9.7892 65.3464 10.5028 65.3464 11.4654V12.4363L64.9979 12.038H67.7612C68.1097 12.038 68.3669 12.121 68.5329 12.2869C68.7154 12.4529 68.8067 12.6936 68.8067 13.0089C68.8067 13.3076 68.7154 13.5483 68.5329 13.7308C68.3669 13.8968 68.1097 13.9798 67.7612 13.9798H65.3464V23.0912C65.3464 23.9376 64.9315 24.3608 64.1017 24.3608ZM74.9808 24.4106C73.6531 24.4106 72.5079 24.1616 71.5453 23.6637C70.5993 23.1493 69.8608 22.4273 69.3297 21.4979C68.8152 20.5519 68.558 19.4317 68.558 18.1372C68.558 16.8758 68.8152 15.7722 69.3297 14.8262C69.8442 13.8802 70.5495 13.1417 71.4457 12.6106C72.3419 12.0795 73.3626 11.8139 74.5078 11.8139C75.3542 11.8139 76.1093 11.955 76.7732 12.2372C77.437 12.5027 78.0013 12.901 78.466 13.4321C78.9473 13.9466 79.3041 14.5772 79.5365 15.3241C79.7854 16.0709 79.9099 16.909 79.9099 17.8384C79.9099 18.1206 79.8269 18.3363 79.6609 18.4857C79.495 18.6185 79.246 18.6848 78.9141 18.6848H70.5495V17.1414H78.217L77.7938 17.4899C77.7938 16.6601 77.6694 15.9547 77.4204 15.3739C77.1881 14.793 76.8313 14.3532 76.35 14.0545C75.8853 13.7391 75.3044 13.5815 74.6073 13.5815C73.8273 13.5815 73.1635 13.764 72.6158 14.1291C72.0847 14.4943 71.6781 15.0004 71.396 15.6477C71.1138 16.295 70.9727 17.0501 70.9727 17.9131V18.0625C70.9727 19.523 71.313 20.6266 71.9934 21.3734C72.6905 22.1037 73.6945 22.4688 75.0057 22.4688C75.5035 22.4688 76.0263 22.4024 76.574 22.2696C77.1383 22.1369 77.6694 21.9128 78.1673 21.5975C78.4494 21.4315 78.6983 21.3568 78.9141 21.3734C79.1464 21.39 79.329 21.4647 79.4618 21.5975C79.6111 21.7303 79.7024 21.8962 79.7356 22.0954C79.7688 22.2945 79.7356 22.502 79.636 22.7177C79.5365 22.9169 79.3622 23.0995 79.1133 23.2654C78.549 23.6471 77.8934 23.9376 77.1466 24.1367C76.3997 24.3193 75.6778 24.4106 74.9808 24.4106ZM82.8253 24.3608C82.4269 24.3608 82.1199 24.2529 81.9042 24.0372C81.6884 23.8048 81.5805 23.4895 81.5805 23.0912V13.1334C81.5805 12.7185 81.6884 12.4031 81.9042 12.1874C82.1199 11.9716 82.4186 11.8637 82.8004 11.8637C83.1987 11.8637 83.4974 11.9716 83.6966 12.1874C83.9123 12.4031 84.0202 12.7185 84.0202 13.1334V15.1747L83.7464 14.627C84.0783 13.7474 84.5928 13.0587 85.2898 12.5608C85.9869 12.0629 86.825 11.8139 87.8042 11.8139C88.8165 11.8139 89.6381 12.0546 90.2687 12.5359C90.8994 13.0172 91.3309 13.7557 91.5632 14.7515H91.2147C91.53 13.8387 92.0694 13.1251 92.8329 12.6106C93.5963 12.0795 94.4842 11.8139 95.4966 11.8139C96.426 11.8139 97.1894 11.9965 97.7869 12.3616C98.3843 12.7102 98.8324 13.2495 99.1312 13.9798C99.4299 14.6934 99.5793 15.5979 99.5793 16.6933V23.0912C99.5793 23.4895 99.4631 23.8048 99.2307 24.0372C99.015 24.2529 98.708 24.3608 98.3096 24.3608C97.9113 24.3608 97.6043 24.2529 97.3885 24.0372C97.1728 23.8048 97.0649 23.4895 97.0649 23.0912V16.8177C97.0649 15.7888 96.8824 15.0336 96.5172 14.5523C96.1687 14.0711 95.5878 13.8304 94.7746 13.8304C93.8618 13.8304 93.1399 14.1457 92.6088 14.7764C92.0777 15.4071 91.8122 16.2784 91.8122 17.3903V23.0912C91.8122 23.4895 91.7043 23.8048 91.4885 24.0372C91.2728 24.2529 90.9658 24.3608 90.5674 24.3608C90.1691 24.3608 89.8538 24.2529 89.6215 24.0372C89.4057 23.8048 89.2978 23.4895 89.2978 23.0912V16.8177C89.2978 15.7888 89.1236 15.0336 88.775 14.5523C88.4265 14.0711 87.8456 13.8304 87.0324 13.8304C86.1196 13.8304 85.3977 14.1457 84.8666 14.7764C84.3521 15.4071 84.0949 16.2784 84.0949 17.3903V23.0912C84.0949 23.9376 83.6717 24.3608 82.8253 24.3608ZM103.219 24.3359C102.821 24.3359 102.514 24.2197 102.298 23.9874C102.082 23.7384 101.974 23.3982 101.974 22.9667V13.2578C101.974 12.8263 102.082 12.4944 102.298 12.2621C102.514 12.0297 102.821 11.9135 103.219 11.9135C103.617 11.9135 103.924 12.0297 104.14 12.2621C104.373 12.4944 104.489 12.8263 104.489 13.2578V22.9667C104.489 23.3982 104.381 23.7384 104.165 23.9874C103.949 24.2197 103.634 24.3359 103.219 24.3359ZM103.219 9.3245C102.721 9.3245 102.331 9.20003 102.049 8.95108C101.784 8.70213 101.651 8.35361 101.651 7.90551C101.651 7.44081 101.784 7.09229 102.049 6.85994C102.331 6.611 102.721 6.48652 103.219 6.48652C103.717 6.48652 104.099 6.611 104.364 6.85994C104.646 7.09229 104.787 7.44081 104.787 7.90551C104.787 8.35361 104.646 8.70213 104.364 8.95108C104.099 9.20003 103.717 9.3245 103.219 9.3245ZM112.086 24.4106C111.09 24.4106 110.252 24.2363 109.571 23.8878C108.891 23.5393 108.385 23.0248 108.053 22.3443C107.721 21.6639 107.555 20.8341 107.555 19.8549V13.9798H106.061C105.729 13.9798 105.472 13.8968 105.289 13.7308C105.107 13.5483 105.016 13.3076 105.016 13.0089C105.016 12.6936 105.107 12.4529 105.289 12.2869C105.472 12.121 105.729 12.038 106.061 12.038H107.555V9.47387C107.555 9.05896 107.663 8.74363 107.878 8.52787C108.111 8.31212 108.426 8.20424 108.824 8.20424C109.223 8.20424 109.53 8.31212 109.746 8.52787C109.961 8.74363 110.069 9.05896 110.069 9.47387V12.038H112.982C113.314 12.038 113.571 12.121 113.754 12.2869C113.936 12.4529 114.027 12.6936 114.027 13.0089C114.027 13.3076 113.936 13.5483 113.754 13.7308C113.571 13.8968 113.314 13.9798 112.982 13.9798H110.069V19.6557C110.069 20.5353 110.252 21.1992 110.617 21.6473C110.999 22.0954 111.613 22.3194 112.459 22.3194C112.758 22.3194 113.015 22.2945 113.231 22.2448C113.463 22.1784 113.654 22.1369 113.803 22.1203C113.986 22.1203 114.135 22.1867 114.251 22.3194C114.368 22.4356 114.426 22.668 114.426 23.0165C114.426 23.2654 114.376 23.4978 114.276 23.7135C114.193 23.9293 114.036 24.0703 113.803 24.1367C113.604 24.2031 113.33 24.2612 112.982 24.311C112.65 24.3774 112.351 24.4106 112.086 24.4106ZM117.913 28.8418C117.614 28.8418 117.365 28.7588 117.166 28.5929C116.983 28.4435 116.875 28.236 116.842 27.9705C116.826 27.7215 116.875 27.4477 116.992 27.149L118.684 23.3401V24.4106L114.029 13.5815C113.913 13.2827 113.872 13.0006 113.905 12.735C113.938 12.4695 114.062 12.2621 114.278 12.1127C114.494 11.9467 114.784 11.8637 115.149 11.8637C115.465 11.8637 115.714 11.9384 115.896 12.0878C116.079 12.2372 116.245 12.4944 116.394 12.8595L120.153 22.1452H119.456L123.265 12.8595C123.414 12.4778 123.589 12.2206 123.788 12.0878C123.987 11.9384 124.261 11.8637 124.609 11.8637C124.908 11.8637 125.14 11.9467 125.306 12.1127C125.489 12.2621 125.597 12.4695 125.63 12.735C125.68 12.984 125.638 13.2578 125.506 13.5566L119.282 27.8709C119.116 28.2526 118.925 28.5099 118.709 28.6426C118.51 28.7754 118.245 28.8418 117.913 28.8418Z" fill="#31728D"/>
<g clip-path="url(#clip0_35_140)">
<path fill-rule="evenodd" clip-rule="evenodd" d="M12.585 3.65692C9.96504 2.32619 7.51809 2.22476 5.69844 3.2732C3.87944 4.32126 2.745 6.48498 2.59007 9.4129C2.43585 12.3272 3.27779 15.8314 5.22186 19.192C6.92785 22.1411 9.15466 24.4122 11.4364 25.8191C11.0592 24.8752 10.8497 23.8327 10.7928 22.7569C10.6521 20.0986 11.4166 17.0645 13.0499 14.2412C14.448 11.8247 16.2984 9.88161 18.2926 8.61503C16.5895 6.3661 14.5834 4.67198 12.585 3.65692ZM19.6761 10.6843C18.0431 11.709 16.4402 13.3508 15.2045 15.4868C13.7767 17.9547 13.1666 20.5153 13.2783 22.6254C13.3906 24.7493 14.2082 26.2483 15.4459 26.9614C15.8971 27.2214 16.411 27.3809 16.974 27.4321C17.8157 27.3684 18.5924 27.1364 19.2796 26.7404C20.7291 25.9053 21.7439 24.3615 22.1748 22.2871C22.2847 21.7584 22.3565 21.1952 22.388 20.6004C22.5422 17.6861 21.7003 14.1819 19.7562 10.8216C19.7297 10.7757 19.7029 10.7299 19.6761 10.6843ZM16.9607 29.9275C15.0834 30.0231 13.1201 29.5168 11.2659 28.5751C8.17046 27.0028 5.21691 24.1536 3.06724 20.4375C0.917642 16.7216 -0.0786092 12.7439 0.10461 9.28147C0.287107 5.83273 1.66573 2.72506 4.45553 1.11764C7.24469 -0.4894 10.6295 -0.127041 13.7124 1.43884C14.9704 2.07779 16.2049 2.92761 17.3715 3.96077C17.3771 3.96557 17.3827 3.97043 17.3882 3.97535C18.5217 4.98156 19.5932 6.16234 20.5602 7.49442C22.5783 6.77534 24.7056 6.74962 26.5308 7.80151M24.595 22.8641C24.7427 22.176 24.8349 21.4615 24.8735 20.7318C25.0554 17.2956 24.0758 13.3519 21.9602 9.66051C23.246 9.32027 24.3911 9.44021 25.2878 9.95702L25.288 9.95715C26.526 10.6703 27.3437 12.1694 27.4561 14.2931C27.5678 16.4033 26.9577 18.9639 25.5299 21.4317C25.2374 21.9375 24.9242 22.4155 24.595 22.8641ZM16.9607 29.9275C18.4452 30.0128 19.9873 29.6144 21.424 28.8847C23.8004 27.6777 26.0511 25.5006 27.6845 22.6773C29.3179 19.8541 30.0823 16.8199 29.9415 14.1616C29.8015 11.5171 28.7397 9.07416 26.531 7.80163" fill="#31728D"/>
</g>
<defs>
<clipPath id="clip0_35_140">
<rect width="30" height="30" fill="white"/>
</clipPath>
</defs>
</svg>
